<svg width="117px" height="256px" viewBox="0 0 117 256" version="1.1"
    xmlns="http://www.w3.org/2000/svg"
    xmlns:xlink="http://www.w3.org/1999/xlink">
    <g id="Page-1" stroke="none" stroke-width="1" fill="none" fill-rule="evenodd">
        <g id="MacBook-Pro-13&quot;" transform="translate(-582.000000, -339.000000)" fill-rule="nonzero">
            <g id="undraw_injured_9757" transform="translate(582.000000, 339.000000)">
                <path d="M39.4184289,132.396126 C40.5395919,131.265273 41.1120475,129.686012 40.9817587,128.083291 C40.85147,126.480569 40.0318207,125.019025 38.7433627,124.091931 L36.0526012,106 L25,109.547877 L31.0550071,125.688831 C29.6403562,128.051545 30.1819652,131.119989 32.3157019,132.831198 C34.4494385,134.542407 37.5008618,134.355495 39.4184513,132.396126 L39.4184289,132.396126 Z" id="Path" fill="#F2CEAA"></path>
                <path d="M28.4023213,124 L21.4275384,91.0252933 C20.0457662,84.6020364 22.063463,77.9135869 26.7542971,73.3676575 C35.6820766,64.6583887 47.1563836,53.680899 51.1198372,50.841402 C54.8398048,48.1571176 59.341009,46.812105 63.9046263,47.021157 L64.0002978,47.0318064 L70,52.7716237 L56.9302451,74.5519824 L37.0890625,87.1367885 L39.2970435,119.456273 L28.4023213,124 Z" id="Path" fill="#D6A87A"></path>
                <rect id="Rectangle" fill="#C2C8CC" x="21" y="79" width="34" height="5" rx="2.5"></rect>
                <rect id="Rectangle" fill="#CCCCCC" x="21" y="129" width="34" height="5" rx="2.5"></rect>
                <path d="M37.7068882,255 C37.1150589,255 36.6212202,254.543 36.5688795,253.946968 L22.0045408,81.2572815 C21.9487771,80.6218203 22.4130781,80.0609717 23.0415861,80.0045911 C23.6700941,79.9482104 24.224806,80.417648 24.2805697,81.0531091 L37.6904366,240.604207 L50.7191792,81.0559276 C50.7542561,80.6447562 51.0036256,80.2837385 51.3733526,80.1088664 C51.7430797,79.9339942 52.176994,79.9718348 52.5116441,80.2081341 C52.8462943,80.4444333 53.0308391,80.8432916 52.9957622,81.254463 L38.8452111,253.94415 C38.7942229,254.540845 38.3006801,255 37.7083163,255 L37.7068882,255 Z" id="Path" fill="#C2C8CC"></path>
                <circle id="Oval" fill="#F2CEAA" cx="71" cy="25" r="15"></circle>
                <polygon id="Path" fill="#FFB8B8" points="26.1764198 248 19 245.716992 24.4073329 217 35 220.36969"></polygon>
                <path d="M26.0540238,254 L3,246.787887 L3.19040694,246.200144 C4.71724178,241.518653 9.81650512,238.93315 14.5901289,240.42009 L29,244.928126 L26.0540238,254 Z" id="Path" fill="#2F2E41"></path>
                <polygon id="Path" fill="#F2CEAA" points="78 248 70.5469736 248 67 219 78 219"></polygon>
                <path d="M57,255 L80,255 L80,246 L65.4806955,246 C60.7991512,246.005627 57.0053397,250.006158 57,254.942795 L57,255 Z" id="Path" fill="#2F2E41"></path>
                <path d="M77.881381,238.971429 L75.3154342,238.589735 C67.5329778,237.433902 67.0670172,237.364681 65.8315182,236.823918 C65.2005918,236.547602 65.1562317,232.372365 65.5350453,208.901983 C65.8129545,191.673835 66.1590582,170.232868 65.4871443,158.722286 C65.430126,157.787397 64.7373082,157.013499 63.8119356,156.851028 C62.8865629,156.688557 61.9701727,157.179922 61.5961367,158.03913 C55.8055352,171.368924 46.0903396,201.198785 39.6615848,220.937786 C37.4254129,227.804128 35.6591953,233.227303 34.5417362,236.478098 C34.0945302,237.752112 32.7487963,238.478266 31.4341405,238.154946 C26.1436722,236.836659 26.4973918,236.276118 18.9622476,234.333439 C17.6075889,233.989094 16.7669529,232.640469 17.0572727,231.277304 C18.4201749,224.870644 43.361273,120.99205 45.2703577,111.117322 C45.4008337,110.434625 45.7995922,109.832211 46.3779333,109.44408 C46.9562744,109.05595 47.6662358,108.914291 48.3498932,109.050615 C53.9653241,110.178478 57.3815827,111.374994 62.9308335,112.531956 C68.9187043,113.780456 75.1105084,115.071623 81.1499662,116.276617 L81.1499662,116.276617 C81.7510689,116.397164 82.2897915,116.726333 82.670317,117.205578 C84.1647321,119.086946 86.3806337,120.143048 88.726777,121.261023 C90.3084958,122.014812 86.7242994,121.946881 88.1018006,123.033922 C93.68011,127.435731 85.6582996,216.821476 80.8112578,237.009592 C80.4889586,238.319292 79.2196003,239.169273 77.881381,238.971481 L77.881381,238.971429 Z" id="Path" fill="#3E474D"></path>
                <path d="M77.3379659,37.7760734 C76.4591703,34.05002 80.9016864,26.0325766 80.0228908,22.3065232 C79.4277566,19.7831641 73.4896432,21.498498 72.1038689,19.3068098 C70.7180946,17.1151216 68.3969151,15.3395298 65.8026354,15.3104383 C62.8207114,15.2770018 59.8864935,17.4872684 57.0617544,16.5319918 C54.2056414,15.566099 53.2927585,11.6578788 54.5554754,8.92183982 C55.8181923,6.18580082 58.5383116,4.44234422 61.2257779,3.07618199 C65.8022281,0.749750327 71.1308885,-0.949131889 76.0290172,0.590082799 C78.9899507,1.52053279 81.4656647,3.53666351 83.8614669,5.50855232 C86.0453677,7.30603012 88.2660062,9.14425885 89.7926733,11.5246028 C92.7834605,16.187727 92.6030133,22.4707307 90.0471637,27.3853481 C87.491314,32.2999656 82.834229,35.9065061 77.7026349,38" id="Path" fill="#3E474D"></path>
                <path d="M40.3085263,125.488417 C41.954682,122.757414 44.4539091,109.961666 47.5359403,88.4842011 C49.6342483,73.8224867 51.4624925,58.9251706 52.3695929,51.3153799 C52.5127289,50.0634073 53.2944243,48.9726469 54.438663,48.4282455 C55.0272954,48.1461014 55.6124402,47.8790834 56.1940974,47.6271915 C63.7058976,44.3823712 71.3186004,43.3073452 78.8194785,44.4314208 C86.3092145,45.5738276 93.3343665,48.7528045 99.1167992,53.6162346 L99.1850577,53.6802178 L99.2026585,53.7715399 C99.2352968,53.9406762 102.385592,70.7994717 95.9330166,82.1896158 C89.5691368,93.4280912 89.4949145,123.190097 89.4949145,123.489439 L89.4949145,123.871924 L89.1243841,123.767071 C79.2241992,120.957734 40.980724,125.872594 40.5954643,125.922769 L40,126 L40.3085263,125.488417 Z" id="Path" fill="#D6A87A"></path>
                <rect id="Rectangle" fill="#C2C8CC" x="66" y="86" width="34" height="5" rx="2.5"></rect>
                <rect id="Rectangle" fill="#CCCCCC" x="66" y="136" width="34" height="5" rx="2.5"></rect>
                <path d="M82.7068311,256 C82.1150017,256 81.6211629,255.543189 81.5688222,254.947403 L67.0044823,89.2567929 C66.9684095,88.8458912 67.1519812,88.4467529 67.4860477,88.2097295 C67.8201142,87.9727061 68.2539229,87.9338071 68.6240622,88.1076854 C68.9942016,88.2815638 69.2444386,88.6418031 69.2805114,89.0527048 L82.6903794,241.610146 L95.7191232,89.0555221 C95.7733474,88.4201685 96.3269352,87.9495379 96.9555963,88.0043393 C97.5842574,88.0591407 98.0499305,88.618622 97.9957064,89.2539756 L83.8451541,254.944585 C83.7941658,255.541034 83.300623,256 82.7082592,256 L82.7068311,256 Z" id="Path" fill="#C2C8CC"></path>
                <path d="M74.1274741,137.608224 C73.7804451,136.013225 74.1501099,134.344761 75.1369988,133.051782 C76.1238876,131.758803 77.6266241,130.97413 79.2408505,130.908901 L91.4304117,117 L99,126.244614 L84.9818287,136.597019 C84.9088873,139.407334 82.7681804,141.718349 79.9989414,141.97633 C77.2297025,142.23431 74.7072462,140.357713 74.1274626,137.608206 L74.1274741,137.608224 Z" id="Path" fill="#F2CEAA"></path>
                <path d="M81,128.215509 L100.324118,102.358302 L90.3594416,80.9293076 L91.0829654,55.5147517 L99.2524347,54 L99.3390141,54.0435828 C103.307541,56.372961 106.383845,59.9696914 108.07665,64.2593872 C109.891322,68.8127021 113.655467,84.3038221 116.49345,96.497693 C118.000843,102.879393 116.092456,109.588548 111.455272,114.209991 L87.7499261,138 L81,128.215509 Z" id="Path" fill="#D6A87A"></path>
                <path d="M0.0655731042,248.562358 L26.5048497,254.924338 C27.5633313,255.20433 28.6707067,254.687736 29.1357203,253.697029 L51.8475533,193.346449 C52.0501269,192.877604 52.0508413,192.346126 51.8495288,191.876738 C51.618098,191.349892 51.1808313,190.940789 50.6395752,190.744716 L30.7611141,183.157713 C30.1256592,182.914758 29.4167272,182.953922 28.8119366,183.265394 C28.286238,183.524797 27.8985872,183.998879 27.748929,184.565412 L27.7483514,184.568229 L13.7180119,237.758552 L13.5095842,237.771518 C13.4289256,237.776586 5.38570572,238.323432 1.76882397,242.662656 C0.404165617,244.306557 -0.213083067,246.444576 0.0655731042,248.562358 L0.0655731042,248.562358 Z" id="Path" fill="#C2C8CC"></path>
                <polygon id="Rectangle" fill="#B3B3B3" transform="translate(30.954934, 216.443186) rotate(-83.954840) translate(-30.954934, -216.443186) " points="30.377585 204.331118 31.5322838 204.331118 31.5322838 228.555255 30.377585 228.555255"></polygon>
                <polygon id="Rectangle" fill="#B3B3B3" transform="translate(26.326672, 228.992354) rotate(-65.775630) translate(-26.326672, -228.992354) " points="25.74932 218.363706 26.9040246 218.363706 26.9040246 239.621003 25.74932 239.621003"></polygon>
                <polygon id="Path" fill="#B3B3B3" points="45.5326453 209 23 201.099237 23.4673547 200 46 207.900763"></polygon>
                <polygon id="Path" fill="#B3B3B3" points="47.5326453 204 25 193.045572 25.4673547 192 48 202.954428"></polygon>
                <polygon id="Rectangle" fill="#B3B3B3" transform="translate(22.717897, 240.619540) rotate(-49.494750) translate(-22.717897, -240.619540) " points="22.1407326 229.786197 23.295062 229.786197 23.295062 251.452882 22.1407326 251.452882"></polygon>
                <polygon id="Rectangle" fill="#B3B3B3" transform="translate(12.960091, 245.341410) rotate(-24.393340) translate(-12.960091, -245.341410) " points="12.3828711 237.333164 13.5373102 237.333164 13.5373102 253.349655 12.3828711 253.349655"></polygon>
            </g>
        </g>
    </g>
</svg>