<svg width="492px" height="406px" viewBox="0 0 492 406" version="1.1"
    xmlns="http://www.w3.org/2000/svg"
    xmlns:xlink="http://www.w3.org/1999/xlink">
    <g id="Page-1" stroke="none" stroke-width="1" fill="none" fill-rule="evenodd">
        <g id="Artboard" transform="translate(-840.000000, -459.000000)" fill-rule="nonzero">
            <g id="Group" transform="translate(840.922209, 459.543195)">
                <circle id="Oval" fill="#D6A87A" cx="172.57739" cy="232.456842" r="39"></circle>
                <path d="M168.71159,247.334457 C167.834137,247.336084 166.979947,247.052344 166.27787,246.526022 L166.23434,246.493342 L157.06908,239.476092 C155.91354,238.591575 155.317863,237.157628 155.506559,235.714701 C155.695254,234.271774 156.639637,233.039225 157.983771,232.481599 C159.327905,231.923972 160.867452,232.126039 162.02216,233.011642 L167.95873,237.563722 L181.98773,219.267802 C182.644836,218.41078 183.61549,217.849905 184.686144,217.708573 C185.756799,217.567241 186.839745,217.857028 187.69673,218.514182 L187.6095,218.632622 L187.69899,218.515912 C189.481219,219.885674 189.818351,222.439601 188.45261,224.224912 L171.9511,245.745302 C171.177549,246.75046 169.97994,247.337947 168.71159,247.334457 L168.71159,247.334457 Z" id="Path" fill="#FFFFFF"></path>
                <circle id="Oval" fill="#3E474D" cx="77.6201803" cy="42.4616019" r="28.93994"></circle>
                <ellipse id="Oval" fill="#3E474D" transform="translate(48.680235, 20.507173) rotate(-45.000000) translate(-48.680235, -20.507173) " cx="48.6802345" cy="20.5071726" rx="11.97515" ry="8.98136"></ellipse>
                <ellipse id="Oval" fill="#3E474D" transform="translate(96.770778, 12.963522) rotate(-66.869560) translate(-96.770778, -12.963522) " cx="96.7707781" cy="12.9635219" rx="8.98136" ry="11.97515"></ellipse>
                <path d="M158.20588,209.543902 C159.68616,206.730298 159.844151,203.405532 158.637341,200.464239 C157.43053,197.522947 154.982887,195.26727 151.95303,194.304172 L110.13687,105.845102 L91.0089603,119.258172 L138.12756,201.992872 C136.818206,207.306732 139.690252,212.760098 144.812771,214.686576 C149.93529,216.613054 155.689128,214.403713 158.20588,209.543932 L158.20588,209.543902 Z" id="Path" fill="#F2CEAA"></path>
                <path d="M119.7264,120.603172 L97.5178503,130.534042 C96.2392004,131.105779 94.7750144,131.092644 93.506828,130.498058 C92.2386415,129.903472 91.2920665,128.786329 90.9137603,127.437732 L84.3646003,104.084562 C81.3930317,97.3362008 84.4425015,89.4557726 91.1826005,86.4655115 C97.9226996,83.4752503 105.81155,86.5028667 108.82048,93.2346519 L121.82185,113.616742 C122.574736,114.79784 122.776238,116.248155 122.373847,117.589764 C121.971457,118.931372 121.005031,120.031389 119.7264,120.603172 L119.7264,120.603172 Z" id="Path" fill="#CCCCCC"></path>
                <path d="M17.1588403,218.313872 C20.2556597,217.594669 22.8748616,215.54071 24.3116742,212.704672 C25.7484868,209.868634 25.8553174,206.54184 24.6034203,203.619462 L64.2057503,114.147382 L41.5511803,108.441382 L9.74703029,198.183752 C4.8699565,200.6668 2.62084009,206.405189 4.51179589,211.540914 C6.40275168,216.676638 11.8360791,219.586378 17.1588703,218.313872 L17.1588403,218.313872 Z" id="Path" fill="#F2CEAA"></path>
                <polygon id="Path" fill="#F2CEAA" points="6.36334029 380.489842 17.8833403 384.683842 39.5443403 342.245842 22.5413403 336.055842"></polygon>
                <path d="M1.38400733,382.441474 L39.9147273,382.441474 L39.9147273,397.328344 L16.2708473,397.328344 C8.04906939,397.328344 1.38400733,390.663262 1.38400733,382.441474 L1.38400733,382.441474 L1.38400733,382.441474 Z" id="Path" fill="#3E474D" transform="translate(20.649367, 389.884909) rotate(-159.993480) translate(-20.649367, -389.884909) "></path>
                <path d="M33.6120903,356.067847 C32.9052279,356.067847 32.2071324,355.911352 31.5682203,355.608952 L18.3289403,349.338052 C16.0791472,348.282001 15.0079887,345.682916 15.8604103,343.348352 L53.2241803,239.880172 C53.855797,238.131184 55.4377848,236.902007 57.2886112,236.722179 C59.1394376,236.54235 60.9284587,237.443997 61.8849503,239.038682 L81.6473003,271.975772 C82.5426177,273.469963 82.5624956,275.330866 81.6993003,276.843842 L37.8121903,353.645842 C36.9465464,355.146711 35.3447009,356.070419 33.6120903,356.067847 L33.6120903,356.067847 Z" id="Path" fill="#3E474D"></path>
                <circle id="Oval" fill="#F2CEAA" cx="78.5380203" cy="49.3702319" r="24.56103"></circle>
                <path d="M113.28503,161.039822 L69.7970303,149.080272 L46.6674203,102.821592 C44.4081811,98.3031435 44.6496434,92.9370565 47.3055711,88.63978 C49.9614988,84.3425035 54.6531448,81.7269689 59.7049303,81.7269689 L94.3043403,81.7269689 C97.8957222,81.7246834 101.361189,83.0500732 104.03447,85.4483219 C113.31589,93.7628219 132.81535,117.733122 113.47321,160.621692 L113.28503,161.039822 Z" id="Path" fill="#D6A87A"></path>
                <path d="M58.8447303,130.148912 L36.8113003,119.835332 C35.542751,119.241518 34.5954969,118.124949 34.2163745,116.77658 C33.8372521,115.428211 34.0638132,113.981599 34.8370203,112.813702 L48.2274903,92.5910119 C51.3917365,85.9311145 59.3483097,83.0873305 66.0171114,86.2327672 C72.6859131,89.3782039 75.5521424,97.3267191 72.4255403,104.004372 L65.5014003,127.167302 C65.0998232,128.509155 64.1340643,129.60976 62.8557803,130.18232 C61.5774964,130.75488 60.1132999,130.742685 58.8447303,130.148912 L58.8447303,130.148912 Z" id="Path" fill="#D6A87A"></path>
                <polygon id="Path" fill="#F2CEAA" points="85.5023403 392.085842 97.7613403 392.085842 103.59434 344.797842 85.4993403 344.798842"></polygon>
                <path d="M82.8749358,388.582656 L121.405666,388.582656 L121.405666,403.469526 L97.7617758,403.469526 C89.5400017,403.469526 82.8749358,396.804451 82.8749358,388.582656 L82.8749358,388.582656 L82.8749358,388.582656 Z" id="Path" fill="#3E474D" transform="translate(102.140301, 396.026091) rotate(179.997380) translate(-102.140301, -396.026091) "></path>
                <path d="M90.1311503,374.066227 C87.8588749,374.069552 85.8967657,372.476376 85.4334603,370.251832 C81.9094603,353.647922 63.6071203,268.600432 49.3222503,224.793032 C34.7880803,180.222542 59.5405503,159.921322 64.6500903,156.304502 C65.1942351,155.920105 65.6265688,155.398131 65.9029103,154.791922 L69.6151103,146.625862 C70.4011561,144.904161 72.1196107,143.799302 74.0122603,143.799302 L74.0423203,143.799302 C101.87091,143.965512 111.22632,152.737862 113.95667,156.502072 C114.771836,157.636824 115.047404,159.072369 114.71035,160.428302 L97.1026703,233.073032 C96.9935005,233.52348 96.9687795,233.990263 97.0297603,234.449722 L114.54803,366.349642 C114.71805,367.630312 114.366603,368.925608 113.572596,369.944713 C112.778589,370.963818 111.608556,371.621336 110.32519,371.769642 L90.6966403,374.033812 C90.5089219,374.05546 90.3201128,374.066227 90.1311503,374.066227 Z" id="Path" fill="#3E474D"></path>
                <path d="M52.7301003,33.9214219 C58.3426586,37.7897719 65.0043149,39.8485133 71.8207803,39.8212719 C69.3892629,41.5072321 66.621161,42.64605 63.7071703,43.1592719 C72.7701768,45.1033431 82.1368894,45.1559743 91.2211703,43.3138719 C93.2404478,42.9900892 95.1888621,42.3208917 96.9809503,41.3356319 C98.7870072,40.3270028 100.079451,38.5985024 100.53616,36.5809319 C101.13981,33.1324119 98.4526803,29.9993619 95.6601603,27.8878519 C87.0020877,21.4411211 75.9063474,19.2238908 65.4356403,21.8481719 C62.0593803,22.7208919 58.6771203,24.1954319 56.4841403,26.9068319 C54.2911603,29.6182319 53.6415703,33.7983319 55.7309203,36.5903619 L52.7301003,33.9214219 Z" id="Path" fill="#3E474D"></path>
                <circle id="Oval" fill="#D6A87A" cx="416.57739" cy="127.456842" r="13"></circle>
                <path d="M415.28879,132.416047 C414.996306,132.41659 414.711576,132.322011 414.47755,132.146572 L414.46304,132.135682 L411.40795,129.796592 C411.021651,129.502141 410.822143,129.02371 410.884797,128.542043 C410.947452,128.060376 411.262717,127.648906 411.71149,127.46308 C412.160264,127.277255 412.674127,127.345404 413.05895,127.641782 L415.0378,129.159142 L419.71415,123.060502 C419.933184,122.774825 420.256735,122.587865 420.61362,122.540753 C420.970506,122.493641 421.331489,122.590238 421.61715,122.809292 L421.58807,122.848772 L421.6179,122.809872 C422.211977,123.266458 422.324357,124.117767 421.86911,124.712872 L416.3686,131.886332 C416.110756,132.221377 415.711564,132.417205 415.28879,132.416047 L415.28879,132.416047 Z" id="Path" fill="#FFFFFF"></path>
                <circle id="Oval" fill="#D6A87A" cx="416.57739" cy="165.456842" r="13"></circle>
                <path d="M415.28879,170.416047 C414.996306,170.41659 414.711576,170.322011 414.47755,170.146572 L414.46304,170.135682 L411.40795,167.796592 C411.021651,167.502141 410.822143,167.02371 410.884797,166.542043 C410.947452,166.060376 411.262717,165.648906 411.71149,165.46308 C412.160264,165.277255 412.674127,165.345404 413.05895,165.641782 L415.0378,167.159142 L419.71415,161.060502 C419.933184,160.774825 420.256735,160.587865 420.61362,160.540753 C420.970506,160.493641 421.331489,160.590238 421.61715,160.809292 L421.58807,160.848772 L421.6179,160.809872 C422.211977,161.266458 422.324357,162.117767 421.86911,162.712872 L416.3686,169.886332 C416.110756,170.221377 415.711564,170.417205 415.28879,170.416047 Z" id="Path" fill="#FFFFFF"></path>
                <circle id="Oval" fill="#D6A87A" cx="423.57739" cy="209.456842" r="13"></circle>
                <path d="M422.28879,214.416047 C421.996306,214.41659 421.711576,214.322011 421.47755,214.146572 L421.46304,214.135682 L418.40795,211.796592 C418.021651,211.502141 417.822143,211.02371 417.884797,210.542043 C417.947452,210.060376 418.262717,209.648906 418.71149,209.46308 C419.160264,209.277255 419.674127,209.345404 420.05895,209.641782 L422.0378,211.159142 L426.71415,205.060502 C426.933184,204.774825 427.256735,204.587865 427.61362,204.540753 C427.970506,204.493641 428.331489,204.590238 428.61715,204.809292 L428.58807,204.848772 L428.6179,204.809872 C429.211977,205.266458 429.324357,206.117767 428.86911,206.712872 L423.3686,213.886332 C423.110756,214.221377 422.711564,214.417205 422.28879,214.416047 Z" id="Path" fill="#FFFFFF"></path>
                <path d="M479.8474,271.336852 C455.01733,167.066852 475.72729,74.9368519 485.78735,40.1768519 C487.001652,35.9526272 486.16074,31.4033235 483.516624,27.8923046 C480.872508,24.3812857 476.732443,22.3168519 472.33715,22.3168519 L231.2976,22.3168519 C226.821407,22.3212349 222.61593,24.4610659 219.97729,28.0768519 C210.24729,41.4568519 190.05736,85.8268519 212.60766,208.596852 C224.66723,274.276852 224.48754,319.056852 220.5476,348.556852 C218.33715,365.166902 214.92748,376.926852 211.83715,384.856902 L211.50756,385.696902 C210.856691,387.301497 210.517313,389.015353 210.50756,390.746902 C210.46145,394.701698 212.110217,398.487121 215.03735,401.146902 C215.980914,402.031065 217.048888,402.772264 218.20727,403.346902 C219.169002,403.837518 220.186456,404.210215 221.23754,404.456902 C222.307852,404.718144 223.40581,404.849093 224.50754,404.846902 L461.82738,404.846902 C461.85766,404.846902 461.93725,404.856902 462.07738,404.856902 C463.59738,404.856902 471.52758,404.416902 478.71752,395.756902 C489.61742,382.626832 498.66723,350.386842 479.8474,271.336852 Z M476.95727,394.146852 C469.90746,402.706852 462.25756,402.486852 461.88744,402.478996 L224.50756,402.478996 C220.648715,402.478996 217.041426,400.561656 214.87719,397.366852 C212.979584,394.61335 212.390715,391.16396 213.26733,387.936852 C213.380715,387.473425 213.527752,387.018886 213.70727,386.576852 C217.237027,377.506431 219.853329,368.106576 221.51733,358.516852 C227.15746,327.766852 228.20727,280.316852 214.9475,208.166852 C192.56762,86.3068519 212.35766,42.6068519 221.89721,29.4768519 C224.092222,26.4792612 227.582285,24.7046002 231.2976,24.696849 L472.33715,24.696849 C475.983109,24.696849 479.418269,26.4054955 481.612466,29.3172861 C483.806662,32.2290768 484.504724,36.0028341 483.49731,39.5068519 C473.38744,74.4568519 452.57738,167.066852 477.53731,271.886852 C496.0974,349.836852 487.46752,381.396852 476.95727,394.146852 Z" id="Shape" fill="#626C73"></path>
                <path d="M365.33683,135.857172 L241.15083,135.857172 C235.893748,135.857172 231.63204,131.595464 231.63204,126.338382 C231.63204,121.081299 235.893748,116.819592 241.15083,116.819592 L365.33683,116.819592 C370.593913,116.819592 374.85562,121.081299 374.85562,126.338382 C374.85562,131.595464 370.593913,135.857172 365.33683,135.857172 Z" id="Path" fill="#EDF0F2"></path>
                <path d="M365.33683,176.857172 L241.15083,176.857172 C235.893748,176.857172 231.63204,172.595464 231.63204,167.338382 C231.63204,162.081299 235.893748,157.819592 241.15083,157.819592 L365.33683,157.819592 C370.593913,157.819592 374.85562,162.081299 374.85562,167.338382 C374.85562,172.595464 370.593913,176.857172 365.33683,176.857172 Z" id="Path" fill="#EDF0F2"></path>
                <path d="M375.33683,218.857172 L251.15083,218.857172 C245.893748,218.857172 241.63204,214.595464 241.63204,209.338382 C241.63204,204.081299 245.893748,199.819592 251.15083,199.819592 L375.33683,199.819592 C380.593913,199.819592 384.85562,204.081299 384.85562,209.338382 C384.85562,214.595464 380.593913,218.857172 375.33683,218.857172 Z" id="Path" fill="#EDF0F2"></path>
                <path d="M382.33683,262.857172 L258.15083,262.857172 C252.893748,262.857172 248.63204,258.595464 248.63204,253.338382 C248.63204,248.081299 252.893748,243.819592 258.15083,243.819592 L382.33683,243.819592 C387.593913,243.819592 391.85562,248.081299 391.85562,253.338382 C391.85562,258.595464 387.593913,262.857172 382.33683,262.857172 Z" id="Path" fill="#EDF0F2"></path>
                <path d="M382.38949,61.9474069 L293.15079,61.9474069 C289.747729,61.9508899 286.601676,60.137381 284.899138,57.190823 C283.196599,54.2442651 283.196599,50.6129487 284.899138,47.6663907 C286.601676,44.7198327 289.747729,42.9063239 293.15079,42.9098069 L382.38949,42.9098069 C387.646576,42.9098069 391.908285,47.1715216 391.908285,52.4286069 C391.908285,57.6856922 387.646576,61.9474069 382.38949,61.9474069 L382.38949,61.9474069 Z" id="Path" fill="#D6A87A"></path>
                <circle id="Oval" fill="#EDF0F2" cx="431.57739" cy="253.338362" r="13"></circle>
                <path d="M388.33683,305.857172 L264.15083,305.857172 C258.893748,305.857172 254.63204,301.595464 254.63204,296.338382 C254.63204,291.081299 258.893748,286.819592 264.15083,286.819592 L388.33683,286.819592 C393.593913,286.819592 397.85562,291.081299 397.85562,296.338382 C397.85562,301.595464 393.593913,305.857172 388.33683,305.857172 Z" id="Path" fill="#EDF0F2"></path>
                <circle id="Oval" fill="#EDF0F2" cx="437.57739" cy="296.338362" r="13"></circle>
            </g>
        </g>
    </g>
</svg>